<?xml version="1.0" encoding="UTF-8" standalone="no"?>
<svg
   viewBox="0 0 64 64"
   width="64"
   height="64"
   version="1.1"
   id="svg1"
   sodipodi:docname="arson.svg"
   inkscape:version="1.3 (0e150ed, 2023-07-21)"
   xml:space="preserve"
   xmlns:inkscape="http://www.inkscape.org/namespaces/inkscape"
   xmlns:sodipodi="http://sodipodi.sourceforge.net/DTD/sodipodi-0.dtd"
   xmlns="http://www.w3.org/2000/svg"
   xmlns:svg="http://www.w3.org/2000/svg"><defs
     id="defs1" /><sodipodi:namedview
     id="namedview1"
     pagecolor="#ffffff"
     bordercolor="#000000"
     borderopacity="0.25"
     inkscape:showpageshadow="2"
     inkscape:pageopacity="0.0"
     inkscape:pagecheckerboard="0"
     inkscape:deskcolor="#d1d1d1"
     inkscape:zoom="3.6875"
     inkscape:cx="31.864407"
     inkscape:cy="32"
     inkscape:window-width="1728"
     inkscape:window-height="971"
     inkscape:window-x="0"
     inkscape:window-y="34"
     inkscape:window-maximized="1"
     inkscape:current-layer="svg1" /><circle
     cx="32"
     cy="32"
     r="30"

 fill="#0A5EA8"
     stroke="#063A6B"     
     stroke-width="4"
     id="circle1" /><path
     d="m 26.075231,46.090489 c 0.02631,0.173649 0.102605,0.32888 0.102605,0.507792 a 3.4203635,3.4203635 0 1 1 -3.420363,-3.420364 c 0.736693,0 1.376038,0.281522 1.933821,0.676179 l 25.000226,-15.475829 1.383931,2.236392 z m -8.671937,-3.288812 c 1.126088,-1.586522 2.933618,-2.631049 4.998992,-2.744184 2.096946,-4.754305 6.932814,-4.943741 6.932814,-13.192079 0,-10.524195 -13.155244,-13.155244 -13.155244,-13.155244 0,0 5.262097,2.631049 5.262097,7.893146 0,5.262098 -7.893146,7.893147 -7.893146,13.155244 0,3.662421 1.305001,6.040889 3.854487,8.040486 z"
     id="path1"
     style="fill:#ffffff;stroke-width:2.63104" /></svg>
