<?xml version="1.0" encoding="UTF-8" standalone="no"?>
<svg
   viewBox="0 0 64 64"
   width="64"
   height="64"
   version="1.1"
   id="svg1"
   sodipodi:docname="dui.svg"
   xml:space="preserve"
   inkscape:version="1.3 (0e150ed, 2023-07-21)"
   xmlns:inkscape="http://www.inkscape.org/namespaces/inkscape"
   xmlns:sodipodi="http://sodipodi.sourceforge.net/DTD/sodipodi-0.dtd"
   xmlns="http://www.w3.org/2000/svg"
   xmlns:svg="http://www.w3.org/2000/svg"><defs
     id="defs1" /><sodipodi:namedview
     id="namedview1"
     pagecolor="#ffffff"
     bordercolor="#000000"
     borderopacity="0.25"
     inkscape:showpageshadow="2"
     inkscape:pageopacity="0.0"
     inkscape:pagecheckerboard="0"
     inkscape:deskcolor="#d1d1d1"
     inkscape:zoom="3.6875"
     inkscape:cx="37.830508"
     inkscape:cy="38.508475"
     inkscape:window-width="1632"
     inkscape:window-height="833"
     inkscape:window-x="496"
     inkscape:window-y="157"
     inkscape:window-maximized="0"
     inkscape:current-layer="svg1" /><circle
     cx="32"
     cy="32"
     r="30"
     fill="#939393"
     stroke="#717171"
     stroke-width="4"
     id="circle1"
     style="display:inline" /><path
     d="M 46.896271,22.118644 H 43.732204 L 41.235762,16.140847 C 40.662881,14.627119 39.406949,13.305085 37.033898,13.305085 H 26.003729 c -2.364237,0 -3.617967,1.31983 -4.204068,2.835762 L 19.29661,22.118644 H 16.154576 A 1.158983,1.158983 0 0 0 15,23.273221 v 1.048813 a 2.2033898,2.2033898 0 0 0 2.20339,2.20339 v 11.016949 a 2.2033898,2.2033898 0 0 0 2.203389,2.20339 h 0.0088 c -0.04407,0.771186 0.0661,1.855254 0.850509,2.591186 0.118983,0.114577 0.271017,0.242374 0.438474,0.381187 0.843898,0.711695 1.255932,1.181017 1.222881,1.392542 -0.08373,0.546441 -0.495762,1.004746 -0.976102,1.53356 -0.643389,0.711694 -1.443219,1.595254 -1.443219,2.915085 h 1.98305 c 0,-0.528814 0.352543,-0.947459 0.929831,-1.584238 0.610338,-0.66983 1.297796,-1.432204 1.467457,-2.571356 0.209322,-1.41678 -1.062034,-2.489831 -1.905932,-3.201525 -0.138813,-0.11678 -0.264406,-0.22034 -0.361356,-0.310678 C 21.39863,40.68 21.369986,40.168814 21.405239,39.745763 h 0.204916 a 2.2033898,2.2033898 0 0 0 2.20339,-2.20339 v -2.20339 h 15.423728 v 2.20339 a 2.2033898,2.2033898 0 0 0 2.203391,2.20339 h 0.0088 c -0.04407,0.771186 0.0661,1.855254 0.850508,2.591186 0.118983,0.114577 0.271017,0.242374 0.438475,0.381187 0.843898,0.711695 1.255932,1.181017 1.222881,1.392542 -0.08373,0.546441 -0.495762,1.004746 -0.976102,1.53356 -0.64339,0.711694 -1.44322,1.595254 -1.44322,2.915085 h 1.983051 c 0,-0.528814 0.352543,-0.947459 0.92983,-1.584238 0.610339,-0.66983 1.297798,-1.432204 1.467458,-2.571356 0.209323,-1.41678 -1.062034,-2.489831 -1.905932,-3.201525 C 43.8776,41.085424 43.752006,40.981864 43.655057,40.891526 43.432515,40.68 43.40387,40.168814 43.439125,39.745763 h 0.204915 a 2.2033898,2.2033898 0 0 0 2.20339,-2.20339 V 26.525424 a 2.2033898,2.2033898 0 0 0 2.203329,-2.20339 V 23.273221 A 1.158983,1.158983 0 0 0 46.896271,22.118644 Z M 22.711864,33.135593 a 3.289661,3.289661 0 0 1 -3.305085,-3.305084 3.2786441,3.2786441 0 0 1 3.305085,-3.305085 3.2852542,3.2852542 0 0 1 3.305085,3.305085 3.2962712,3.2962712 0 0 1 -3.305085,3.305084 z m 1.101695,-11.016949 h -1.674576 l 2.406102,-5.658305 c 0.27983,-0.887966 0.447288,-0.951864 1.471864,-0.951864 h 11.105085 c 1.009153,0 1.44322,0.0661 1.736271,0.951864 l 2.659491,5.658305 z m 16.540848,11.016949 a 3.3050849,3.3050849 0 1 1 0,-6.610169 c 1.804576,-0.01542 3.278644,1.469661 3.289661,3.305085 a 3.3072881,3.3072881 0 0 1 -3.289661,3.305084 z"
     id="path1-3"
     style="display:inline;fill:#ffffff;stroke-width:2.20339" /></svg>
