<?xml version="1.0" encoding="UTF-8" standalone="no"?>
<svg
   viewBox="0 0 64 64"
   width="64"
   height="64"
   version="1.1"
   id="svg1"
   sodipodi:docname="larceny.svg"
   inkscape:version="1.3 (0e150ed, 2023-07-21)"
   xml:space="preserve"
   xmlns:inkscape="http://www.inkscape.org/namespaces/inkscape"
   xmlns:sodipodi="http://sodipodi.sourceforge.net/DTD/sodipodi-0.dtd"
   xmlns="http://www.w3.org/2000/svg"
   xmlns:svg="http://www.w3.org/2000/svg"><defs
     id="defs1" /><sodipodi:namedview
     id="namedview1"
     pagecolor="#ffffff"
     bordercolor="#000000"
     borderopacity="0.25"
     inkscape:showpageshadow="2"
     inkscape:pageopacity="0.0"
     inkscape:pagecheckerboard="0"
     inkscape:deskcolor="#d1d1d1"
     inkscape:zoom="3.6875"
     inkscape:cx="31.864407"
     inkscape:cy="32"
     inkscape:window-width="1728"
     inkscape:window-height="971"
     inkscape:window-x="0"
     inkscape:window-y="34"
     inkscape:window-maximized="1"
     inkscape:current-layer="svg1" /><circle
     cx="32"
     cy="32"
     r="30"
     fill="#c69536"
     stroke="#947029"
     stroke-width="4"
     id="circle1" /><path
     d="m 44.130542,41.548572 3.116476,5.081433 -21.301854,5.846571 -1.652292,-3.317294 -7.117565,-15.073985 3.1724,-1.644665 c 1.270994,1.601452 2.859736,3.548614 4.191738,5.038219 l 0.254198,0.299954 c 0.569406,0.686337 1.626872,1.962414 3.515569,1.962414 0.991375,0 2.015796,-0.368588 3.13427,-1.128642 1.873445,-1.270994 1.931911,-3.787561 0.205902,-6.489694 l -2.48098,-4.262913 12.293051,-6.385472 7.346344,15.523917 -22.47117,10.564499 0.90749,1.926827 z M 20.052837,22.79379 v 5.14244 c 0,0 3.749432,4.906036 6.380389,7.844573 0.902405,1.006627 1.415887,2.196278 3.584202,0.724466 0.991375,-0.668542 -0.564321,-3.103766 -0.564321,-3.103766 l -3.322378,-5.711846 a 3.0605528,3.0605528 0 0 1 0.49823,-3.721469 1.9700402,1.9700402 0 0 1 2.77585,0.01271 l 0.610077,0.355878 6.136357,-3.08089 -0.978664,-2.153063 -6.037221,-2.859735 -2.859736,-4.448478 -9.532452,6.354968 z"
     id="path1"
     style="fill:#ffffff;stroke-width:2.54199" /></svg>
